<svg t="1706769466063" class="icon" viewBox="0 0 1024 1024" version="1.1" xmlns="http://www.w3.org/2000/svg" p-id="41565" width="200" height="200"><path d="M749.165165 657.297297c-25.369369-4.228228-49.201201-11.915916-71.495495-24.984985-86.486486-51.507508-112.24024-167.975976-57.273274-252.156156 26.138138-40.36036 48.816817-83.027027 73.033033-124.924925 29.213213-50.354354 58.426426-101.093093 87.255256-151.831832 11.147147-19.219219 27.291291-31.135135 48.816817-36.132132 2.690691-3.843844 6.15015-1.153153 9.225225-0.384384 43.051051 11.147147 68.036036 60.348348 46.51051 101.477477-14.990991 28.444444-31.903904 55.351351-47.663663 83.411412-7.687688 13.837838-15.75976 27.291291-23.447448 40.744745-5.765766 10.378378-4.228228 14.606607 6.534535 20.756756 7.303303 3.843844 15.75976 5.765766 20.756756 13.069069 8.072072 11.147147 16.144144 22.294294 22.678679 34.594595 14.606607 28.06006 23.447447 58.042042 24.216216 89.945946 0.768769 28.06006-1.921922 54.966967-11.915916 81.489489-14.990991 41.129129-41.129129 73.801802-75.723723 99.93994-14.606607 11.147147-30.750751 19.219219-47.663664 25.753754-1.153153 0.768769-2.690691 0.384384-3.843844-0.768769zM405.525526 759.543544c-37.285285-11.147147-67.651652-31.903904-87.63964-66.114115-28.06006-48.432432-28.828829-98.018018-0.768769-146.066066 38.822823-66.882883 77.261261-134.15015 116.468469-200.648648 3.843844-6.918919 8.456456-13.453453 11.915916-20.756757 8.456456-17.297297 21.525526-29.597598 39.591591-36.516517 2.306306-4.228228 5.765766-1.921922 8.840841-1.153153 39.591592 8.840841 58.426426 51.507508 38.438438 86.486487-16.528529 28.444444-32.672673 57.273273-49.201201 85.333333-0.384384 0.384384-0.768769 1.153153-0.768769 1.537538-9.993994 17.681682-9.60961 19.219219 8.456457 28.444444 3.843844 1.921922 7.687688 3.843844 10.378378 7.687688 10.762763 16.144144 21.525526 32.288288 27.675676 50.738739 19.987988 61.501502 9.60961 116.852853-31.51952 166.822822-18.45045 22.294294-41.513514 38.054054-68.036036 48.816817-2.306306 0.768769-4.996997 0.768769-7.303303 0.384385-6.534535-1.537538-12.684685-0.384384-16.528528-4.996997zM128.384384 819.891892c-11.147147-8.456456-23.063063-15.75976-32.672672-26.906907-30.366366-34.978979-34.978979-86.486486-11.531532-126.462462 30.366366-51.891892 60.732733-104.168168 90.714715-156.060061 7.303303-12.684685 14.990991-24.984985 25.753754-34.978979-0.384384 1.153153 0-0.384384-0.768769 0.384385-0.384384 0.384384-1.153153-0.384384-0.384385-1.153153 1.921922-2.306306 4.996997-2.306306 7.687688-2.306307 16.144144-0.768769 28.828829 6.15015 37.285285 19.603604 8.456456 13.453453 9.225225 28.06006 1.537538 42.282282-12.3003 22.294294-25.369369 44.204204-38.054054 66.498499-1.153153 2.306306-2.690691 4.228228-3.45946 6.534534-4.228228 8.840841-3.459459 11.531532 5.381382 16.144144 6.534535 3.459459 14.222222 6.15015 18.45045 13.06907 10.762763 17.297297 18.45045 35.747748 21.90991 56.504504 8.840841 54.966967-24.600601 115.315315-76.492492 136.456457-11.147147 1.537538-22.678679 1.537538-33.441442-1.537538-4.996997-1.537538-9.993994-2.690691-11.915916-8.072072z" fill="#F9E00B" p-id="41566"></path><path d="M839.87988 326.342342c-6.15015-4.612613-13.069069-7.687688-19.987988-11.147147-12.3003-5.765766-14.222222-11.915916-7.303303-24.216216 22.678679-39.207207 45.357357-78.03003 67.651651-117.237237 18.834835-33.057057 11.531532-71.495495-17.681681-93.021021-9.60961-7.303303-20.756757-11.915916-32.672673-13.453454-28.444444-3.075075-51.507508 6.918919-67.267267 30.750751-9.225225 13.453453-16.528529 28.06006-24.600601 41.897898-5.765766 9.60961-13.069069 12.684685-20.372372 8.072072-6.918919-4.228228-7.687688-11.915916-2.306307-21.141141 7.303303-12.684685 14.606607-25.369369 22.294295-38.054054 22.294294-37.66967 65.345345-56.12012 106.474474-45.357358 43.051051 11.147147 71.87988 47.279279 73.033033 91.867868 0.384384 17.681682-4.228228 34.594595-13.069069 49.96997-19.219219 33.441441-38.438438 66.882883-58.042042 100.324325-4.228228 7.303303-4.996997 10.762763 3.843844 15.375375 26.522523 13.837838 46.894895 35.363363 66.114114 58.042042 21.90991 26.138138 32.672673 57.273273 37.285285 90.714715 9.225225 65.72973-9.993994 123.003003-54.582582 171.435435-17.297297 19.219219-37.66967 35.363363-63.039039 43.435436-29.213213 11.915916-59.195195 19.603604-91.099099 18.834834-48.816817-1.153153-91.867868-17.297297-129.153154-48.816816-7.303303-6.15015-8.456456-14.222222-3.459459-19.987988 4.996997-6.15015 12.684685-6.15015 20.372372 0 34.21021 28.06006 73.033033 43.435435 117.621622 42.282282h3.459459c13.453453-3.843844 28.06006-4.228228 41.513514-8.456457 71.111111-22.294294 115.315315-69.573574 127.231231-143.375375 11.531532-71.495495-16.144144-128.384384-73.417417-171.81982-3.459459-1.537538-6.918919-3.459459-8.840841-6.918919zM420.516517 762.618619h7.303303c12.684685-3.459459 26.138138-4.612613 38.438438-8.840841 53.813814-18.834835 86.486486-56.504505 95.327328-112.624625 8.840841-55.351351-11.531532-99.93994-54.966967-134.534534-3.075075-2.306306-5.765766-5.381381-8.840841-8.072072-4.612613-4.228228-9.993994-6.534535-15.75976-9.225226-11.915916-5.381381-13.453453-10.378378-6.918919-21.525525 18.066066-31.135135 36.132132-62.654655 54.198198-93.78979 8.072072-13.837838 10.378378-28.444444 6.15015-44.204204-7.303303-24.216216-24.600601-38.438438-50.738738-40.744745-22.294294-1.153153-39.207207 8.072072-50.738739 26.522523-6.918919 10.378378-12.684685 21.525526-18.834835 32.672672-3.459459 6.534535-8.456456 10.378378-15.75976 6.15015-6.918919-3.843844-6.918919-10.378378-3.075075-16.528528 6.918919-11.915916 13.069069-24.216216 20.756757-35.747748 22.678679-34.978979 69.573574-44.972973 105.321321-23.447447 34.978979 21.141141 47.279279 66.882883 27.291292 103.015015-15.75976 28.444444-32.672673 56.888889-48.816817 85.333333-1.537538 2.690691-4.228228 5.381381 0.768769 7.687688 15.75976 8.072072 29.213213 19.219219 43.051051 33.057057-0.384384-16.528529-1.921922-31.135135-0.768769-46.126126 2.690691-31.51952 11.531532-60.732733 28.06006-87.63964 26.906907-43.435435 51.123123-88.024024 76.876877-131.843844 1.921922-3.459459 3.459459-7.303303 7.303303-9.225225 5.381381-3.075075 10.762763-3.075075 15.375376 0.768769 5.765766 4.996997 5.765766 11.147147 2.306306 17.297297-9.993994 17.681682-19.987988 35.363363-30.366367 52.660661-16.528529 27.675676-32.672673 55.351351-48.816816 83.411411-35.363363 61.501502-34.978979 123.771772 0.768768 185.273273 3.843844 6.918919 6.15015 13.069069 1.921922 20.756757-9.993994 6.918919-6.534535 16.528529-6.918919 26.138138-0.768769 39.975976-12.684685 76.108108-38.822822 106.858859-16.528529 19.603604-35.363363 35.747748-59.963964 44.204204-18.834835 6.534535-37.285285 12.684685-57.657658 13.837838-44.972973 2.690691-84.18018-10.378378-118.39039-39.207207-5.381381-4.612613-6.918919-10.378378-1.921922-16.144144 4.612613-5.765766 10.378378-4.996997 16.144144-0.384385 18.834835 16.144144 40.36036 26.906907 64.960961 31.903904 3.843844 0.768769 7.303303 1.153153 10.762763 1.153153 4.996997 1.153153 9.993994 0 14.990991 1.153154zM226.786787 636.924925c-5.381381-5.381381-11.915916-8.456456-18.450451-11.531532-9.993994-4.996997-11.531532-9.225225-6.15015-18.834834 13.069069-23.063063 26.522523-46.510511 39.975976-69.18919 8.840841-15.375375 9.993994-30.366366 0-44.972973-9.60961-14.222222-23.831832-19.603604-40.744745-16.912913-12.684685 2.690691-21.90991 10.378378-28.444444 21.525526-4.228228 7.687688-8.456456 14.990991-13.069069 22.294294-3.459459 6.15015-8.840841 7.687688-14.990991 4.228229-5.765766-3.459459-6.534535-8.840841-3.45946-14.222223 5.765766-9.993994 10.762763-19.987988 17.297298-29.213213 18.066066-26.138138 53.813814-33.825826 81.105105-17.681682 27.675676 16.528529 38.054054 51.891892 22.678679 80.336337-11.147147 20.756757-23.063063 41.129129-35.363364 61.501501-3.075075 4.996997-2.690691 6.918919 2.306306 9.60961 10.378378 5.381381 19.219219 13.069069 28.060061 23.063063 0.768769-12.684685 0-24.216216 1.537537-35.363363 2.690691-23.447447 9.993994-45.357357 21.90991-65.345346 20.372372-34.978979 40.744745-69.573574 61.117117-104.552552 0.768769-1.153153 1.537538-2.690691 2.306306-3.843844 3.459459-5.765766 8.072072-9.60961 14.990991-5.765766 7.303303 3.843844 7.303303 9.993994 3.843844 16.528529-10.378378 18.45045-21.141141 36.516517-31.519519 54.966967-12.3003 21.141141-25.753754 41.513514-36.516517 63.423423-23.063063 46.510511-20.372372 92.636637 5.381382 137.60961 3.459459 6.15015 6.15015 11.915916 1.921922 18.834834-7.687688 5.381381-8.072072 13.069069-9.225226 21.90991-4.228228 36.900901-19.219219 68.036036-50.738738 89.945946-1.921922 1.537538-4.228228 2.306306-6.534535 3.45946-50.738739 30.750751-109.165165 28.06006-151.831832-6.918919-5.765766-4.612613-9.60961-9.993994-4.612612-17.297297 3.843844-5.381381 10.378378-4.612613 17.681681 0.768768 9.60961 6.918919 18.45045 15.375375 31.135135 16.144144 14.222222 8.840841 30.366366 8.456456 46.126127 7.303304 18.834835-5.765766 37.285285-11.147147 53.429429-23.831832 48.048048-36.900901 53.429429-109.933934 10.762763-152.984985-3.843844-5.765766-8.072072-10.378378-11.915916-14.990991zM579.651652 766.846847c16.144144 0 29.213213 10.378378 33.441441 26.138138 3.843844 14.606607-2.306306 30.366366-16.912913 38.438438-41.513514 23.447447-83.411411 46.510511-124.924925 69.957958l-10.378378 5.765766c-9.993994 5.765766-13.069069 15.75976-7.687688 24.984985 4.996997 8.840841 14.990991 11.531532 24.600601 6.15015 33.441441-18.45045 66.498498-37.66967 99.93994-56.12012 12.684685-6.918919 25.369369-13.837838 37.669669-20.756757 4.996997-2.690691 9.993994-2.690691 12.684685 2.690691 2.690691 4.996997 0.768769 9.225225-4.228228 12.3003-46.894895 26.138138-93.78979 52.660661-141.069069 78.414415-16.144144 8.840841-36.132132 1.537538-44.972973-14.990991-8.840841-16.912913-3.459459-36.516517 13.453453-46.126126 28.828829-16.528529 58.042042-32.672673 87.255256-48.816817 15.75976-8.840841 31.51952-17.297297 47.279279-26.138138 11.147147-6.15015 14.606607-15.75976 9.225225-25.36937-5.381381-9.225225-15.375375-11.531532-26.138138-5.765765-12.684685 6.918919-24.984985 13.837838-37.66967 21.141141-5.765766 3.075075-11.915916 6.534535-15.75976-1.153153-3.843844-6.918919 1.921922-10.378378 7.303304-13.453454l39.207207-21.90991c5.765766-3.459459 11.531532-5.381381 17.681682-5.381381z" fill="#010101" p-id="41567"></path><path d="M549.66967 973.261261c0.384384-9.60961 6.918919-19.603604 19.219219-26.522522 52.276276-28.828829 104.168168-58.042042 156.06006-86.870871 9.993994-5.765766 13.837838-12.3003 11.147147-21.525526-3.075075-11.147147-14.990991-16.144144-25.753754-10.378378-10.762763 5.765766-21.525526 11.915916-32.288288 18.066066-4.996997 3.075075-10.378378 3.843844-13.453453-1.921922-3.075075-5.381381-0.384384-9.60961 4.996997-12.684685 10.378378-5.765766 20.756757-11.531532 31.519519-17.297297 18.066066-9.993994 38.438438-4.612613 48.048048 12.3003 9.993994 17.297297 3.843844 38.054054-14.222222 48.048048-51.891892 28.828829-103.399399 57.657658-155.291291 86.486487-6.918919 3.843844-13.069069 8.072072-13.069069 17.297297s5.765766 14.606607 13.837837 17.297298c4.996997 1.921922 6.534535 5.381381 4.996997 10.378378-1.537538 5.381381-5.765766 6.15015-11.147147 4.996997-14.606607-3.459459-24.600601-17.297297-24.6006-37.66967z" fill="#020202" p-id="41568"></path><path d="M835.267267 664.984985c31.51952-16.528529 58.426426-38.054054 79.183183-66.882883 48.816817-68.804805 50.738739-159.51952 4.996997-230.246246-1.537538-2.306306-4.228228-4.612613-4.228228-8.072072 21.141141 17.297297 35.747748 39.591592 45.741742 64.576576 39.975976 99.93994-16.144144 212.18018-120.312312 240.240241-1.921922 0-3.843844 0-5.381382 0.384384z" fill="#FD6C01" p-id="41569"></path><path d="M37.66967 724.564565c0-28.444444 7.687688-51.123123 21.141141-72.648649 13.837838-22.678679 26.906907-46.126126 40.36036-69.189189 1.153153-2.306306 2.306306-4.228228 3.843844-6.534535 3.459459-6.534535 8.840841-9.993994 15.75976-5.765766 6.534535 3.843844 6.15015 9.993994 2.69069 16.144145L96.096096 630.39039c-7.303303 12.684685-15.375375 25.369369-22.294294 38.054054-19.603604 34.978979-19.603604 69.957958-1.153153 105.321322 1.153153 2.306306 2.690691 4.228228 3.843843 6.15015 2.690691 5.765766 2.306306 11.147147-3.459459 14.606607-5.765766 3.459459-10.762763 1.921922-14.222222-3.45946-8.840841-13.453453-14.606607-28.06006-18.066066-43.81982-2.306306-8.840841-3.075075-17.297297-3.075075-22.678678z" fill="#010101" p-id="41570"></path><path d="M491.627628 770.306306c14.222222-8.456456 28.444444-16.528529 40.744744-27.675675 31.51952-28.828829 49.96997-64.192192 54.198199-106.858859 0.768769-7.687688 2.690691-15.375375 0.768768-22.678679-2.306306-9.993994-1.153153-16.912913 9.60961-19.987988 10.762763 11.915916 8.456456 26.522523 8.456456 40.36036-0.768769 64.192192-46.510511 121.081081-108.78078 136.456457-1.153153 0.384384-3.075075 0.384384-4.996997 0.384384z" fill="#FC6C02" p-id="41571"></path><path d="M132.612613 244.084084c0 17.297297-13.453453 31.135135-30.750751 31.135135-15.75976 0-29.981982-14.222222-30.366367-29.981982-0.384384-17.681682 13.069069-31.135135 30.366367-31.135135 17.297297-0.384384 30.366366 12.684685 30.750751 29.981982z" fill="#F7931F" p-id="41572"></path><path d="M213.717718 152.984985c8.840841 0.384384 12.3003 6.15015 11.915916 14.222222 0 5.765766 0.384384 9.225225 7.687687 8.456457 6.534535-0.768769 11.531532 2.306306 11.531532 9.993994s-5.381381 9.993994-11.915916 9.993994c-4.996997 0-7.687688 0.768769-8.072072 6.534534-0.768769 6.534535-5.765766 8.840841-11.915916 8.840841-5.765766-0.384384-10.762763-3.075075-10.378378-9.225225 0.384384-6.15015-3.459459-5.765766-7.303304-6.534535-4.996997-1.153153-8.072072-4.228228-8.072072-9.609609 0-5.765766 3.459459-9.60961 8.072072-9.225226 8.072072 0.384384 6.918919-4.612613 6.918919-9.609609 0-9.225225 3.843844-13.837838 11.531532-13.837838z" fill="#FD6D01" p-id="41573"></path><path d="M131.075075 382.078078c-5.765766-0.768769-10.378378-3.843844-9.60961-10.762763 0.384384-5.765766-1.537538-8.072072-7.303303-7.303303-6.15015 0.768769-10.378378-2.690691-10.762763-8.456456-0.384384-6.15015 3.459459-11.147147 10.378379-9.993994 9.60961 1.153153 7.687688-5.381381 7.687687-10.378379 0-6.534535 2.690691-10.762763 9.60961-11.147147 6.918919-0.384384 9.60961 4.612613 9.993994 10.762763v1.921922c-0.768769 6.534535 1.153153 9.60961 8.456457 8.840841 6.534535-0.768769 11.915916 1.921922 12.3003 9.225225 0 8.072072-5.381381 10.378378-12.3003 9.609609-6.15015-0.768769-8.840841 1.153153-8.456457 8.072072-0.384384 5.381381-3.843844 8.840841-9.993994 9.60961z" fill="#03BDFB" p-id="41574"></path><path d="M444.732733 238.318318c-4.612613 0-9.60961-2.306306-9.60961-4.228228 1.537538-12.3003-15.75976-11.531532-14.606606-22.678679 0.384384-3.459459 1.921922-7.303303 5.381381-7.687687 6.15015-0.768769 7.303303-3.843844 6.918919-9.225226-0.768769-8.072072 5.381381-10.378378 11.147147-10.762762 5.765766 0 11.915916 2.306306 11.531531 9.993994-0.384384 6.15015 1.537538 8.840841 8.072073 8.456456 6.534535-0.384384 11.915916 3.075075 11.531531 9.993994-0.384384 6.918919-5.381381 9.993994-12.3003 9.60961-5.381381-0.384384-7.303303 1.537538-7.687688 6.918919 0.384384 7.303303-5.381381 9.225225-10.378378 9.609609z" fill="#FDDB01" p-id="41575"></path><path d="M609.633634 137.225225c-0.384384 6.534535-4.612613 8.456456-9.60961 8.072072-9.60961-1.153153-15.375375 0.768769-13.453453 12.300301 0.768769 4.996997-1.921922 9.225225-8.072073 8.84084-6.15015-0.384384-7.687688-4.612613-7.303303-9.609609 1.153153-8.840841-1.153153-13.069069-11.147147-11.531532-4.996997 0.768769-9.225225-1.537538-8.840841-7.687687 0-6.15015 4.612613-8.072072 9.225225-7.687688 9.225225 1.153153 11.915916-2.306306 10.762763-11.147147-0.768769-5.381381 0.768769-10.378378 7.303303-10.378379s8.456456 4.996997 7.687688 10.378379c-1.537538 9.993994 3.075075 11.915916 11.531532 11.147147 6.15015-1.153153 11.147147 0.768769 11.915916 7.303303z" fill="#010101" p-id="41576"></path><path d="M236.012012 827.57958c26.138138-19.603604 44.588589-44.204204 51.891892-76.492493 1.537538-7.303303 3.843844-14.606607 3.075075-21.90991-1.153153-9.225225 0.768769-15.75976 11.147147-16.912913 5.381381 18.066066 1.921922 35.747748-4.228228 53.045045-10.762763 28.444444-30.366366 49.201201-58.426427 61.885886-0.768769 0.384384-2.306306 0-3.459459 0.384385z" fill="#FC6C03" p-id="41577"></path><path d="M715.723724 176.048048c-0.768769 1.921922-1.153153 4.612613-2.690691 6.918919-4.612613 8.456456-9.225225 16.528529-14.222222 24.600601-4.612613 7.303303-12.3003 9.60961-18.834835 5.381381-6.15015-3.843844-7.687688-10.762763-3.843844-18.450451 4.996997-8.840841 9.993994-17.681682 15.375376-26.138138 3.459459-5.765766 9.225225-7.303303 15.375375-5.381381 5.381381 1.921922 7.687688 6.534535 8.840841 13.069069z" fill="#020202" p-id="41578"></path><path d="M922.522523 742.246246c-9.225225 0-17.681682-8.072072-18.066067-17.297297-0.384384-9.993994 8.072072-18.45045 18.066067-18.450451 9.60961 0 17.297297 8.072072 17.297297 17.681682 0 9.993994-7.687688 18.066066-17.297297 18.066066z" fill="#0298FB" p-id="41579"></path><path d="M386.690691 365.165165c7.687688 0 12.684685 7.303303 9.225225 14.990991-3.843844 8.072072-8.456456 16.144144-13.453454 23.831832-3.075075 4.612613-8.456456 6.15015-13.837837 2.690691-4.612613-3.075075-6.918919-7.303303-4.612613-12.300301 4.228228-8.840841 9.225225-16.912913 14.606607-25.369369 1.537538-3.075075 4.996997-3.843844 8.072072-3.843844z" fill="#020202" p-id="41580"></path><path d="M398.222222 79.951952c-0.768769 4.228228-2.306306 7.303303-6.918919 7.303303-4.612613-0.384384-7.687688 0.768769-9.225225 5.765766-1.153153 3.843844-6.15015 4.612613-8.072072 1.921922-2.690691-4.996997-7.687688-6.918919-11.147147-10.378378-3.459459-3.843844-2.690691-9.60961 2.306306-11.531532 4.228228-1.537538 5.765766-3.075075 5.765766-7.687688 0-3.843844 2.690691-6.15015 6.534534-5.765765 3.843844 0.384384 5.381381 3.075075 5.381382 6.15015-0.384384 5.765766 2.690691 6.534535 7.303303 6.15015 5.765766 0 7.687688 3.459459 8.072072 8.072072z" fill="#04BDFC" p-id="41581"></path><path d="M128.384384 564.276276c-8.456456 0-13.453453-7.303303-9.993994-14.990991 2.690691-6.15015 6.534535-11.915916 9.993994-17.297297 2.690691-4.228228 7.303303-5.381381 12.300301-3.843844 4.228228 1.537538 7.303303 4.612613 6.534534 8.840841-1.537538 10.378378-7.303303 18.45045-14.222222 25.753754-1.153153 1.537538-3.459459 1.537538-4.612613 1.537537z" fill="#030303" p-id="41582"></path><path d="M622.318318 41.129129c7.303303 0 13.453453 5.765766 13.837838 13.069069 0.384384 7.303303-5.765766 13.837838-12.684685 14.222222-7.687688 0.384384-14.222222-5.765766-14.222222-13.837837-0.384384-7.303303 5.765766-13.453453 13.069069-13.453454z" fill="#FCDC07" p-id="41583"></path><path d="M331.723724 254.078078c0 7.303303-6.534535 13.453453-13.453454 13.453454-7.303303 0-13.453453-6.15015-13.453453-13.453454 0-8.072072 6.15015-14.222222 13.837838-13.837838 7.303303 0.384384 13.069069 6.534535 13.069069 13.837838z" fill="#FCDC06" p-id="41584"></path><path d="M641.153153 865.249249c-3.459459 0-6.918919-1.537538-8.072072-4.996997-1.537538-3.843844-1.153153-7.687688 2.306306-9.993994 4.612613-3.075075 9.225225-5.765766 14.222223-8.072072 3.459459-1.537538 7.303303-0.768769 9.609609 3.075075 1.921922 3.075075 1.921922 6.534535 0 9.60961-1.537538 2.690691-14.990991 10.378378-18.066066 10.378378z" fill="#030303" p-id="41585"></path><path d="M420.516517 762.618619c-4.996997 0-10.378378 1.537538-14.990991-1.537538v-1.921922c4.996997 1.153153 10.378378 1.153153 14.990991 3.45946z" fill="#FDF7DF" p-id="41586"></path><path d="M839.87988 326.342342c44.588589 26.522523 72.264264 65.345345 82.642643 115.6997 19.603604 96.864865-37.285285 186.426426-132.996997 210.642643-11.915916 3.075075-23.831832 4.996997-36.516517 4.612612 15.375375-9.225225 32.288288-15.375375 46.894895-26.522522 42.666667-33.057057 71.87988-74.570571 82.258258-128.384385 7.303303-37.285285 5.381381-74.186186-7.303303-110.318318-7.687688-21.90991-18.066066-42.282282-33.057057-59.963964-1.153153-1.537538-2.306306-3.459459-1.921922-5.765766z" fill="#E7AD10" p-id="41587"></path><path d="M764.540541 550.438438c-11.915916 1.537538-23.831832 2.306306-35.363364-0.768768-38.054054-10.378378-61.501502-48.048048-52.66066-85.717718 9.225225-40.36036 45.357357-63.807808 86.87087-56.12012 7.303303-0.384384 13.837838 1.537538 19.987988 4.996997 51.891892 29.597598 52.660661 99.171171 4.612613 130.306306-6.918919 4.228228-14.606607 7.687688-23.447447 7.303303z" fill="#010101" p-id="41588"></path><path d="M764.540541 550.438438c19.987988-6.534535 36.516517-17.297297 46.894894-36.132132 23.447447-43.435435 0.384384-94.558559-48.432432-106.858859 28.444444-6.15015 62.27027 13.837838 74.570571 43.435436 19.219219 47.663664-14.222222 99.171171-65.72973 101.093093-2.306306 0-4.612613-0.768769-7.303303-1.537538z" fill="#FDFDFD" p-id="41589"></path><path d="M498.162162 498.546547c34.21021 19.987988 55.735736 49.96997 64.192192 88.024024 18.066066 81.105105-30.366366 155.675676-111.855856 173.741741-7.303303 1.537538-14.990991 3.459459-22.678678 2.306307 18.45045-9.225225 36.132132-18.834835 51.507507-33.057057 18.066066-16.528529 32.672673-35.747748 41.897898-58.426427 9.60961-22.678679 14.606607-46.894895 13.453454-71.495495-1.537538-34.21021-11.531532-65.72973-32.288289-93.405406-1.537538-2.306306-3.459459-4.612613-4.228228-7.687687z" fill="#E7AD10" p-id="41590"></path><path d="M436.660661 677.66967c-12.684685 1.153153-25.753754 1.537538-37.66967-4.228229-25.753754-11.531532-39.975976-40.744745-33.057057-67.651651 6.918919-28.06006 32.672673-46.894895 61.501501-44.588589 3.843844 0.384384 7.303303 1.153153 10.762763 1.537538 17.681682 0.384384 28.444444 11.531532 37.285285 24.984985 18.45045 29.213213 6.918919 70.726727-23.447447 86.486486-4.996997 2.306306-10.378378 1.921922-15.375375 3.45946z" fill="#010101" p-id="41591"></path><path d="M436.660661 677.66967c20.756757-6.918919 36.132132-19.219219 42.666666-40.360361 9.993994-32.288288-8.072072-64.576577-41.129129-74.57057 19.987988-4.228228 45.357357 9.993994 55.351352 31.135135 19.987988 40.744745-10.762763 86.102102-56.888889 83.795796z" fill="#FDFDFC" p-id="41592"></path><path d="M184.888889 764.924925c-25.369369 7.687688-44.972973 2.690691-57.657658-14.606607-12.684685-17.297297-12.3003-39.975976 0.768769-57.273273 12.3003-16.144144 34.978979-21.90991 54.582583-13.837838 1.537538 0.384384 2.690691 1.153153 4.228228 1.537538 14.990991 4.612613 26.522523 21.141141 26.906907 39.975976 0.768769 14.990991-7.687688 38.438438-28.828829 44.204204z" fill="#010101" p-id="41593"></path><path d="M226.786787 636.924925c33.441441 20.756757 50.738739 67.651652 40.744745 110.318318-10.378378 43.435435-49.201201 76.876877-92.636637 79.951952 21.141141-11.147147 39.591592-25.369369 52.660661-45.741742 17.297297-26.522523 24.216216-55.735736 20.372372-87.255255-2.690691-21.141141-11.915916-38.822823-21.141141-57.273273z" fill="#E7AD0F" p-id="41594"></path><path d="M184.888889 764.924925c22.294294-14.606607 30.366366-32.672673 24.984985-54.582583-3.459459-13.069069-11.531532-22.678679-22.678679-29.597597 1.537538-0.384384 3.075075-0.768769 4.228228-0.768769 18.066066 4.228228 33.057057 25.369369 31.135136 44.588589-1.921922 21.525526-17.681682 38.438438-37.66967 40.36036z" fill="#FCFCF9" p-id="41595"></path><path d="M117.237237 243.6997c0.384384 7.687688-6.15015 14.990991-14.222222 15.375375-8.456456 0.384384-14.990991-5.381381-15.375375-13.837838-0.384384-8.456456 6.15015-15.75976 14.222222-15.75976 7.687688-0.384384 14.990991 6.534535 15.375375 14.222223z" fill="#FCFCFA" p-id="41596"></path><path d="M748.012012 432.048048c25.753754 0.384384 47.279279 21.90991 46.894895 46.894895-0.384384 25.753754-22.678679 47.663664-48.048048 47.279279-25.753754-0.768769-46.126126-21.90991-46.126126-47.663663 0.384384-26.138138 21.525526-46.894895 47.279279-46.510511zM385.153153 620.396396c-0.384384-19.603604 16.912913-37.66967 36.900901-38.438438 19.987988-0.768769 38.438438 17.297297 38.822823 37.66967 0 19.603604-17.681682 37.66967-37.66967 38.054054-19.219219 0.384384-37.66967-17.681682-38.054054-37.285286z" fill="#FEFEFE" p-id="41597"></path><path d="M190.654655 721.873874c0 13.837838-11.531532 26.138138-25.36937 26.138138-13.837838 0.384384-26.138138-11.531532-26.138138-25.369369-0.384384-14.606607 11.147147-26.522523 25.753754-26.522523 13.837838 0 25.369369 11.531532 25.753754 25.753754z" fill="#FDFDFD" p-id="41598"></path></svg>