<svg viewBox="0 0 1024 1024" version="1.1" xmlns="http://www.w3.org/2000/svg" p-id="6700"><path d="M512 512m-480 0a480 480 0 1 0 960 0 480 480 0 1 0-960 0Z" fill="#d4237a" p-id="6701" data-spm-anchor-id="a313x.search_index.0.i20.26c13a81QL2dNB" class=""></path><path d="M472 256m40 0l0 0q40 0 40 40l0 432q0 40-40 40l0 0q-40 0-40-40l0-432q0-40 40-40Z" fill="#ffffff" p-id="6702" data-spm-anchor-id="a313x.search_index.0.i18.26c13a81QL2dNB" class="selected"></path><path d="M256 472m40 0l432 0q40 0 40 40l0 0q0 40-40 40l-432 0q-40 0-40-40l0 0q0-40 40-40Z" fill="#ffffff" p-id="6703" data-spm-anchor-id="a313x.search_index.0.i17.26c13a81QL2dNB" class="selected"></path></svg>