<svg t="1706764206284" class="icon" viewBox="0 0 1024 1024" version="1.1" xmlns="http://www.w3.org/2000/svg" p-id="10338" width="200" height="200"><path d="M452.629 807.455l-206.403 108.27c-22.497 11.802-50.302 3.13-62.104-19.367a46 46 0 0 1-4.6-29.161l39.37-229.03a46 46 0 0 0-13.263-40.769L38.933 435.272c-18.212-17.713-18.617-46.836-0.904-65.048a46 46 0 0 1 26.376-13.452l230.548-33.426a46 46 0 0 0 34.632-25.13l103.18-208.6c11.264-22.772 38.855-32.1 61.627-20.837a46 46 0 0 1 20.837 20.837l103.18 208.6a46 46 0 0 0 34.632 25.13l230.548 33.426c25.143 3.645 42.57 26.982 38.924 52.124a46 46 0 0 1-13.452 26.376L742.365 597.398a46 46 0 0 0-13.263 40.769l39.37 229.03c4.303 25.038-12.505 48.824-37.543 53.128a46 46 0 0 1-29.161-4.6l-206.403-108.27a46 46 0 0 0-42.736 0z" fill="#ffffff" p-id="10339" data-spm-anchor-id="a313x.search_index.0.i30.3eaf3a81Pbn8cI" class="selected"></path></svg>