<svg t="1710763529032" class="icon" viewBox="0 0 1024 1024" version="1.1" xmlns="http://www.w3.org/2000/svg" p-id="11621" width="32" height="32"><path d="M512 1024l-25.336082-16.890722C469.773196 994.441237 55.950515 703.076289 55.950515 456.049485 55.950515 202.68866 260.750515 0 512 0s456.049485 204.8 456.049485 456.049485c0 247.026804-413.82268 538.391753-430.713403 551.059793l-25.336082 16.890722zM512 84.453608C307.2 84.453608 142.515464 251.249485 142.515464 456.049485 142.515464 612.28866 389.542268 827.645361 512 918.43299c122.457732-90.787629 369.484536-306.14433 369.484536-462.383505C881.484536 251.249485 716.8 84.453608 512 84.453608z" fill="#389BFF" p-id="11622"></path><path d="M512 612.28866c-109.789691 0-200.57732-90.787629-200.57732-200.57732S402.210309 211.134021 512 211.134021s200.57732 90.787629 200.57732 200.577319S621.789691 612.28866 512 612.28866z m0-316.701031c-63.340206 0-116.123711 52.783505-116.123711 116.123711S448.659794 527.835052 512 527.835052s116.123711-52.783505 116.123711-116.123712S575.340206 295.587629 512 295.587629z" fill="#389BFF" p-id="11623"></path></svg>