<svg t="1710762067444" class="icon" viewBox="0 0 1024 1024" version="1.1" xmlns="http://www.w3.org/2000/svg" p-id="1059" width="32" height="32"><path d="M790.85952 583.1552c0-76.19968-24.19072-148.67712-68.93184-208.67456l108.66176-108.66176 0 84.74496c0 14.14016 5.72928 26.9376 14.99648 36.20352 9.26336 9.26464 22.06592 14.99648 36.20352 14.99648 28.27648 0 51.2-22.92224 51.2-51.2l0-204.2112c0.11008-1.36832 0.18176-2.7456 0.18176-4.1408 0-14.18752-5.7728-27.02592-15.09504-36.29952-9.27232-9.31456-22.1056-15.08096-36.28672-15.08224-1.3952 0-2.77504 0.07168-4.14208 0.18176l-204.2112 0c-28.27648 0-51.2 22.92352-51.2 51.2 0 14.13888 5.73184 26.93888 14.99648 36.2048 9.26592 9.26464 22.06464 14.9952 36.20352 14.9952l84.74624 0-108.66176 108.66304c-59.99744-44.73856-132.47744-68.93056-208.67712-68.92928-93.49376 0-181.3888 36.40576-247.49824 102.51648C127.23712 401.7664 90.8288 489.664 90.8288 583.15776c0.00128 93.49248 36.40832 181.38752 102.51776 247.49696 66.10816 66.10688 154.00448 102.5152 247.49696 102.5152 93.4912 0 181.39008-36.40704 247.49696-102.5152C754.45248 764.54528 790.85824 676.64768 790.85952 583.1552zM440.84352 830.77248c-66.14016-0.00256-128.32128-25.75744-175.08992-72.52736-46.76736-46.76736-72.52352-108.9472-72.5248-175.08736 0-66.14272 25.75616-128.32256 72.52352-175.0912 46.76864-46.76736 108.94848-72.52352 175.0912-72.5248 66.14016 0 128.32384 25.75744 175.08992 72.5248 46.76864 46.76864 72.5248 108.94848 72.5248 175.08864 0 66.14272-25.75744 128.32256-72.5248 175.09248C569.16608 805.01504 506.98368 830.77248 440.84352 830.77248z" fill="#1296db" p-id="1060"></path></svg>