<svg t="1710763147499" class="icon" viewBox="0 0 1024 1024" version="1.1" xmlns="http://www.w3.org/2000/svg" p-id="7383" width="32" height="32"><path d="M511.3 707c-8.2 0-16.4-2.2-23.6-6.7L84.3 450.8C71 442.6 63 428.2 63 412.7s8-30 21.3-38.1L487.8 125c14.4-8.9 32.7-8.9 47.2 0l403.5 249.5c13.2 8.2 21.3 22.6 21.3 38.1s-8 30-21.3 38.1L534.9 700.3c-7.2 4.5-15.4 6.7-23.6 6.7zM193.1 412.7l318.2 196.8 318.2-196.8-318.2-196.8-318.2 196.8z" fill="#ffffff" p-id="7384"></path><path d="M651.3 908.1H371.4c-91 0-164.9-70.8-164.9-157.9V522c0-24.8 20.1-44.8 44.8-44.8s44.8 20.1 44.8 44.8v228.3c0 37.6 33.8 68.2 75.3 68.2h279.9c41.5 0 75.3-30.6 75.3-68.2V522c0-24.8 20.1-44.8 44.8-44.8s44.8 20.1 44.8 44.8v228.3c0 87-74 157.8-164.9 157.8zM914.8 803.3c-24.8 0-44.8-20.1-44.8-44.8V412.7c0-24.8 20.1-44.8 44.8-44.8s44.8 20.1 44.8 44.8v345.8c0.1 24.7-20 44.8-44.8 44.8z" fill="#ffffff" p-id="7385"></path></svg>