<svg t="1711075881995" class="icon" viewBox="0 0 1024 1024" version="1.1" xmlns="http://www.w3.org/2000/svg" p-id="17499" width="32" height="32"><path d="M211.649242 813.217191a425.984 425.984 0 1 0 602.421836-602.442865 425.984 425.984 0 1 0-602.421836 602.442865Z" fill="#d4237a" p-id="17500"></path><path d="M266.3936 427.7248l422.5024-103.5776c20.4288-5.0176 37.5296 15.9744 28.4672 34.9696l-188.2112 395.1616c-9.728 20.3776-39.3728 18.432-46.2848-3.072l-48.0256-149.4016a25.06752 25.06752 0 0 1 5.2224-24.3712L522.1888 486.4c5.0176-5.5808-1.6896-13.9264-8.192-10.0864l-108.9024 63.5392a24.9856 24.9856 0 0 1-24.6272 0.3072L260.2496 473.8048c-19.8656-10.9568-15.9232-40.6528 6.144-46.08z" fill="#ffffff" p-id="17501" data-spm-anchor-id="a313x.search_index.0.i40.f9d53a81GozpU3" class="selected"></path></svg>